<svg width="11" height="12" viewBox="0 0 11 12" fill="none" xmlns="http://www.w3.org/2000/svg">
<path d="M6.8268 6.00028L10.5377 2.28935C10.7139 2.11354 10.8129 1.87496 10.8131 1.62611C10.8134 1.37726 10.7147 1.13851 10.5389 0.962393C10.3631 0.786273 10.1245 0.687206 9.87567 0.686986C9.62682 0.686766 9.38807 0.785412 9.21195 0.961221L5.50102 4.67216L1.79008 0.961221C1.61396 0.785101 1.37509 0.686157 1.12602 0.686157C0.876944 0.686157 0.638074 0.785101 0.461953 0.961221C0.285833 1.13734 0.18689 1.37621 0.18689 1.62528C0.18689 1.87436 0.285833 2.11323 0.461953 2.28935L4.17289 6.00028L0.461953 9.71122C0.285833 9.88734 0.18689 10.1262 0.18689 10.3753C0.18689 10.6244 0.285833 10.8632 0.461953 11.0393C0.638074 11.2155 0.876944 11.3144 1.12602 11.3144C1.37509 11.3144 1.61396 11.2155 1.79008 11.0393L5.50102 7.32841L9.21195 11.0393C9.38807 11.2155 9.62694 11.3144 9.87602 11.3144C10.1251 11.3144 10.364 11.2155 10.5401 11.0393C10.7162 10.8632 10.8151 10.6244 10.8151 10.3753C10.8151 10.1262 10.7162 9.88734 10.5401 9.71122L6.8268 6.00028Z" fill="#1F1F1F"/>
</svg>
